<svg t="1770336746542" class="icon" viewBox="0 0 1024 1024" version="1.1" xmlns="http://www.w3.org/2000/svg" p-id="21194" width="200" height="200"><path d="M501.25 635.31h-1.46v-2.19l1.46 2.19z m413.17 59.38v142.82L724.6 731.85V519.44L544.97 418.15V164.93L655 272.41l32.79-32.06-161.4-155.57c-7.37-7.29-19.23-7.29-26.6 0l-161.41 157.4 33.16 32.42 110.03-107.11V420.7L301.95 521.99v224.43L111.77 857.18V697.24H65.86V922.4c-0.08 10.38 8.27 18.87 18.65 18.95h0.29l225.17 3.28v-47H171.89l179.98-106.75 161.41 85.26 169.42-95.46 198.93 109.3h-167.6v47l225.17-3.28c10.34-0.3 18.64-8.61 18.95-18.95V689.59l-43.73 5.1z m-565.1 18.95v-166.5l132.26-74.69v164.68l-132.26 76.51z m163.95 108.2l-112.22-63.4 117.68-70.32 115.86 63.4-121.32 70.32z m164.69-116.58l-132.99-74.69V472.44l132.99 74.69v158.13z m-176.71-69.95h-1.46v-2.19l1.46 2.19z m0 0h-1.46v-2.19l1.46 2.19z" p-id="21195"></path><path d="M311.39 946.07l-1.44-0.02-225.44-3.28c-11.16-0.09-20.16-9.23-20.07-20.38V695.82h48.75v158.89L300.54 745.6V521.16l179.62-101.29V170.85L371.54 276.58l-35.19-34.41L498.8 83.76c7.88-7.78 20.7-7.78 28.59 0.01l162.45 156.58L655 274.4 546.39 168.31v249.01l179.62 101.29v212.41L913 835.09V693.42l46.57-5.43v226.76c-0.32 11.12-9.25 20.04-20.33 20.37l-226.63 3.3v-49.86h163.48L682.7 782.3l-169.4 95.46-0.68-0.36-160.7-84.89-174.85 103.7H311.4v49.86zM67.28 698.66V922.4c-0.07 9.59 7.66 17.45 17.24 17.53h0.28l223.75 3.26v-44.14H166.71l185.12-109.8 161.42 85.27 169.44-95.47 0.69 0.38 198.93 109.3-0.68 2.67H715.45v44.14l223.72-3.26c9.55-0.28 17.27-8 17.55-17.57V691.19l-40.89 4.77v143.97L723.18 732.69V520.27L543.55 418.98V161.56L655 270.43l30.75-30.07L525.4 85.8c-6.79-6.71-17.83-6.71-24.61-0.01L340.42 242.18l31.13 30.44L483 164.12v257.41L303.37 522.82v224.42L110.35 859.66v-161H67.28z m446 124.82l-115.05-65 120.48-71.99 0.71 0.39 118.07 64.6-124.21 72z m-109.4-65.07l109.38 61.79 118.44-68.64-112.94-61.8-114.88 68.65zM347.9 716.1V546.31l135.1-76.3v167.93L347.9 716.1z m2.84-168.13v163.21l129.42-74.87V474.88l-129.42 73.09z m328.64 159.71l-135.83-76.29V470.01l135.83 76.29v161.38z m-132.99-77.95l130.15 73.1V547.96l-130.15-73.1v154.87z m-42.48 6.99h-5.53v-8.3l5.53 8.3z" p-id="21196"></path></svg>