<svg t="1770335955931" class="icon" viewBox="120 120 784 784" version="1.1" xmlns="http://www.w3.org/2000/svg" p-id="4190" width="200" height="200">
  <path d="M174.08 130.141091a62.060606 62.060606 0 0 1 34.909091 2.544485l602.14303 225.807515a62.060606 62.060606 0 0 1-0.620606 116.425697l-248.738909 90.453333-90.453333 248.76994a62.060606 62.060606 0 0 1-116.425697 0.589575L129.086061 212.557576a62.060606 62.060606 0 0 1 44.993939-82.447515z m615.237818 286.440727L187.205818 190.836364l225.776485 602.112-29.044364 10.891636 29.075394-10.860606 90.453334-248.769939a62.091636 62.091636 0 0 1 37.112242-37.112243l248.738909-90.484364z" fill="#303133" p-id="4191"></path>
  <path d="M517.895758 521.495273a31.030303 31.030303 0 0 1 43.876848 0l277.007515 277.007515a31.030303 31.030303 0 0 1-43.876848 43.876848L517.895758 565.372121a31.030303 31.030303 0 0 1 0-43.876848z" fill="#303133" p-id="4192"></path>
</svg>