<?xml version="1.0" encoding="UTF-8" standalone="no"?>
<!DOCTYPE svg PUBLIC "-//W3C//DTD SVG 1.1//EN" "http://www.w3.org/Graphics/SVG/1.1/DTD/svg11.dtd">
<svg width="100%" height="100%" viewBox="0 0 200 200" version="1.1" xmlns="http://www.w3.org/2000/svg" xmlns:xlink="http://www.w3.org/1999/xlink" xml:space="preserve" xmlns:serif="http://www.serif.com/" style="fill-rule:evenodd;clip-rule:evenodd;stroke-linejoin:round;stroke-miterlimit:2;">
    <g transform="matrix(0.195312,0,0,0.195312,-0.00976562,-3.3225)">
        <path d="M601.729,460.063L44.067,277.883L418.1,42.1L963.5,231.4L601.729,460.063Z" style="fill:rgb(81,81,81);fill-opacity:0.78;fill-rule:nonzero;"/>
    </g>
    <g transform="matrix(0.195312,0,0,0.195312,0,0)">
        <path d="M965.1,775.5C961.2,775.5 957.4,774.9 953.6,773.7L405.6,594.8C390.3,589.8 380,575.6 380,559.5L381,42C381,30 386.8,18.8 396.6,11.8C406.4,4.9 418.9,3.1 430.3,7L975.7,196.3C990.6,201.5 1000.6,215.5 1000.6,231.2L1002.2,738.3C1002.2,750.2 996.6,761.4 986.9,768.4C980.5,773.1 972.8,775.5 965.1,775.5ZM454.3,532.7L927.8,687.3L926.4,257.8L455.1,94.1L454.3,532.7Z" style="fill:rgb(37,37,38);fill-opacity:0.78;fill-rule:nonzero;"/>
    </g>
    <g transform="matrix(0.195312,0,0,0.195312,0,0)">
        <path d="M59.3,840.1C53.3,840.1 47.4,838.7 41.9,835.8C29.7,829.4 22.2,816.7 22.2,803L23.1,264.3C23.1,251.5 29.7,239.6 40.6,232.9L398.5,10.6C410,3.5 424.4,3.1 436.1,9.7C447.8,16.3 455.2,28.7 455.1,42.1L454.2,559.6C454.2,571.8 448.1,583.3 438,590.2L80.2,833.6C73.9,837.9 66.6,840.1 59.3,840.1ZM97.3,284.9L96.5,732.8L380.1,539.9L380.9,108.8L97.3,284.9Z" style="fill:rgb(81,81,81);fill-rule:nonzero;"/>
    </g>
    <g transform="matrix(0.195312,0,0,0.195312,0,0)">
        <path d="M606.5,480C602.6,480 598.8,479.4 595,478.2L48.7,299.2C35.1,294.7 25.3,282.8 23.6,268.7C21.9,254.5 28.6,240.6 40.7,233.1L398.7,10.8C408.1,4.9 419.7,3.6 430.2,7.3L975.6,196.6C989.1,201.3 998.7,213.4 1000.1,227.6C1001.5,241.8 994.6,255.6 982.3,262.9L625.3,474.7C619.6,478.2 613.1,480 606.5,480ZM146.6,253.9L602.1,403.1L876.7,240.2L422.6,82.5L146.6,253.9Z" style="fill:rgb(37,37,38);fill-rule:nonzero;"/>
    </g>
    <g transform="matrix(0.195312,0,0,0.195312,0,0)">
        <path d="M601.9,1019C595.9,1019 589.8,1017.5 584.3,1014.6C572.2,1008.1 564.7,995.4 564.8,981.7L569.4,443C569.5,430 576.4,418.1 587.6,411.4L944.6,199.6C956,192.8 970.3,192.7 981.8,199.2C993.4,205.8 1000.6,218 1000.6,231.3L1002.2,738.4C1002.2,750.8 996.1,762.4 985.8,769.3L622.6,1012.7C616.4,1016.9 609.2,1019 601.9,1019ZM643.4,464.4L639.6,912L927.9,718.7L926.6,296.4L643.4,464.4Z" style="fill:rgb(37,37,38);fill-rule:nonzero;"/>
    </g>
    <g transform="matrix(0.195312,0,0,0.195312,0,0)">
        <path d="M601.9,1019C598,1019 594.1,1018.4 590.3,1017.1L47.7,838.2C32.5,833.2 22.2,819 22.2,802.9L23.1,264.2C23.1,252.3 28.8,241.2 38.5,234.2C48.1,227.2 60.5,225.3 71.8,229L618.1,408C633.5,413 643.8,427.4 643.6,443.5L639,982.2C638.9,994 633.1,1005.1 623.5,1012C617.2,1016.6 609.6,1019 601.9,1019ZM96.4,776.2L565.2,930.8L569.1,470L97.1,315.4L96.4,776.2Z" style="fill:rgb(37,37,38);fill-rule:nonzero;"/>
    </g>
</svg>
