<svg t="1770333891520" class="icon" viewBox="0 0 1024 1024" version="1.1" xmlns="http://www.w3.org/2000/svg" p-id="3628" width="200" height="200"><path d="M964.6 776.2c-3.9 0-7.7-0.6-11.5-1.8L405.2 595.5c-15.3-5-25.6-19.2-25.6-35.3l0.9-517.5c0-12 5.8-23.2 15.6-30.2 9.8-6.9 22.3-8.7 33.7-4.8L975.2 197c14.9 5.2 24.9 19.2 24.9 34.9l1.6 507.1c0 11.9-5.6 23.1-15.3 30.1-6.3 4.7-14 7.1-21.8 7.1zM453.9 533.4L927.4 688 926 258.5 454.6 94.8l-0.7 438.6z" fill="#252526" opacity=".78" p-id="3629"></path><path d="M58.8 840.8c-6 0-11.9-1.4-17.4-4.3-12.2-6.4-19.7-19.1-19.7-32.8l0.9-538.7c0-12.8 6.6-24.7 17.5-31.4L398 11.3c11.5-7.1 25.9-7.5 37.6-0.9s19.1 19 19 32.4l-0.9 517.5c0 12.2-6.1 23.7-16.2 30.6L79.7 834.3c-6.2 4.3-13.5 6.5-20.9 6.5z m38-555.2L96 733.5l283.6-192.9 0.8-431.1L96.8 285.6z" fill="#515151" p-id="3630"></path><path d="M58.8 803.7l357.9-243.5 0.9-517.5L59.8 265z" fill="#515151" opacity=".78" p-id="3631"></path><path d="M58.8 840.8c-6 0-11.9-1.4-17.4-4.3-12.2-6.4-19.7-19.1-19.7-32.8l0.9-538.7c0-12.8 6.6-24.7 17.5-31.4L398 11.3c11.5-7.1 25.9-7.5 37.6-0.9s19.1 19 19 32.4l-0.9 517.5c0 12.2-6.1 23.7-16.2 30.6L79.7 834.3c-6.2 4.3-13.5 6.5-20.9 6.5z m38-555.2L96 733.5l283.6-192.9 0.8-431.1L96.8 285.6z" fill="#252526" opacity=".78" p-id="3632"></path><path d="M58.8 840.8c-6 0-11.9-1.4-17.4-4.3-12.2-6.4-19.7-19.1-19.7-32.8l0.9-538.7c0-12.8 6.6-24.7 17.5-31.4L398 11.3c11.5-7.1 25.9-7.5 37.6-0.9s19.1 19 19 32.4l-0.9 517.5c0 12.2-6.1 23.7-16.2 30.6L79.7 834.3c-6.2 4.3-13.5 6.5-20.9 6.5z m38-555.2L96 733.5l283.6-192.9 0.8-431.1L96.8 285.6z" fill="#515151" p-id="3633"></path><path d="M606.1 480.7c-3.9 0-7.7-0.6-11.5-1.8l-546.3-179c-13.6-4.5-23.4-16.4-25.1-30.5-1.7-14.2 5-28.1 17.1-35.6L398.2 11.5c9.4-5.9 21-7.1 31.5-3.5l545.4 189.3c13.5 4.7 23.1 16.8 24.5 31 1.4 14.2-5.5 28-17.8 35.3l-357 211.8c-5.7 3.5-12.2 5.3-18.7 5.3zM146.2 254.6l455.5 149.2 274.6-162.9L422.1 83.2 146.2 254.6z" fill="#252526" p-id="3634"></path><path d="M601.5 1019.7c-6 0-12.1-1.5-17.6-4.4-12.1-6.5-19.6-19.2-19.5-32.9l4.6-538.7c0.1-13 7-24.9 18.2-31.6l357-211.8c11.4-6.8 25.7-6.9 37.2-0.4 11.6 6.6 18.8 18.8 18.8 32.1l1.6 507.1c0 12.4-6.1 24-16.4 30.9l-363.2 243.4c-6.3 4.2-13.5 6.3-20.7 6.3zM643 465.1l-3.8 447.6 288.3-193.3-1.3-422.3-283.2 168z" fill="#252526" p-id="3635"></path><path d="M601.5 1019.7c-3.9 0-7.8-0.6-11.6-1.9L47.2 838.9c-15.2-5-25.5-19.2-25.5-35.3l0.9-538.7c0-11.9 5.7-23 15.4-30 9.6-7 22-8.9 33.3-5.2l546.3 178.9c15.4 5 25.7 19.4 25.5 35.5l-4.6 538.7c-0.1 11.8-5.9 22.9-15.5 29.8-6.3 4.7-13.9 7.1-21.5 7.1zM96 776.9l468.8 154.6 3.9-460.8-472-154.6-0.7 460.8z" fill="#252526" p-id="3636"></path></svg>