<svg t="1770336641360" class="icon" viewBox="0 0 1117 1024" version="1.1" xmlns="http://www.w3.org/2000/svg" p-id="15258" width="200" height="200"><path d="M1113.739636 77.544727L594.944 6.144 76.334545 77.544727l47.476364 672.116364 471.505455 243.898182 471.505454-242.781091 46.824727-673.233455z m-813.428363 34.909091L594.850909 71.959273l293.981091 40.401454-293.981091 61.905455-257.861818-53.992727-36.770909-7.819637z m327.68 790.993455l-0.465455-669.416728 416.116364-87.598545-39.191273 563.2-376.459636 193.815273zM164.026182 393.867636l-17.501091-247.342545 152.576 32.302545 13.591273 268.101819-148.666182-53.061819z m215.04 76.706909l-13.963637-277.876363 197.352728 41.332363 0.093091 301.98691-183.389091-65.44291zM186.274909 708.608l-17.221818-243.805091 147.176727 52.503273 13.405091 265.402182-143.36-74.100364z m210.385455 108.730182l-13.963637-276.293818 179.944728 64.232727 0.186181 298.077091-166.167272-86.016z" p-id="15259"></path></svg>